<svg xmlns="http://www.w3.org/2000/svg" version="1.1" xmlns:xlink="http://www.w3.org/1999/xlink" width="512" height="512" x="0" y="0" viewBox="0 0 512 512" style="enable-background:new 0 0 512 512" xml:space="preserve" class="">
    <g>
        <path fill="#49d88b" d="M421.946 441.996c45.385-44.469 73.557-106.439 73.557-174.998 0-135.311-109.691-245.002-245.002-245.002S5.499 131.687 5.499 266.998c0 30.79 5.696 60.246 16.065 87.392z" opacity="1" data-original="#49d88b" class=""></path>
        <path fill="#167cc1" d="M381.395 0H62.537C39.679 0 21.15 18.53 21.15 41.388V353.3a244.373 244.373 0 0 0 29.009 54.717l343.288 57.948a246.324 246.324 0 0 0 29.336-24.787V41.388C422.783 18.53 404.253 0 381.395 0z" opacity="1" data-original="#167cc1" class=""></path>
        <path fill="#0e62a8" d="M157.101 415.984c-9.917-10.993-2.806-21.14.009-24.375a4.064 4.064 0 0 0 1.008-2.669v-54.445c0-.981-.357-1.935-1.012-2.667-9.57-10.688-2.576-21.144.095-24.406a4.04 4.04 0 0 0 .917-2.562v-54.507c0-.991-.359-1.956-1.028-2.687-10.513-11.486-3.659-20.911-.409-24.292a4.08 4.08 0 0 0 1.058-3.526l-16.755-96.695a4.09 4.09 0 0 0-1.09-2.124c-22.066-22.988-8.567-45.561-3.172-52.751.937-1.249 1.157-2.939.432-4.322-1.292-2.464-.273-4.525.597-5.664.559-.732.893-1.611.893-2.533V38.093c0-.793-.294-1.544-.759-2.186-1.495-2.062-1.166-4.13-.541-5.604a4.057 4.057 0 0 0-.622-4.195c-8.696-10.397-3.833-19.391-.457-23.587a4.01 4.01 0 0 0 .881-2.52h-74.61C39.679 0 21.15 18.53 21.15 41.388V353.3a244.373 244.373 0 0 0 29.009 54.717l107.96 18.224v-7.583c0-.985-.358-1.943-1.018-2.674z" opacity="1" data-original="#0e62a8"></path>
        <path fill="#e9efff" d="M165.281 223.883c-44.688-54.431-93.811-48.001-115.93-41.032V406.88C93.617 470.414 167.197 512 250.501 512c53.856 0 103.642-17.391 144.08-46.844V305.465c-5.812-4.68-11.799-10.084-17.983-16.268-60.528-60.528-110.447 57.55-211.317-65.314z" opacity="1" data-original="#e9efff"></path>
        <path fill="#d3dcfb" d="M157.898 475.288c.146-.425.221-.866.221-1.316v-55.314c0-.985-.358-1.943-1.018-2.674-9.917-10.993-2.806-21.14.009-24.375a4.064 4.064 0 0 0 1.008-2.669v-54.445c0-.981-.357-1.935-1.012-2.667-9.57-10.688-2.576-21.144.095-24.406a4.04 4.04 0 0 0 .917-2.562v-54.507c0-.991-.359-1.956-1.028-2.687-10.513-11.486-3.659-20.911-.409-24.292a4.08 4.08 0 0 0 1.058-3.526l-.963-5.555c-42.275-44.027-86.703-37.972-107.426-31.442V406.88c27.549 39.541 66.454 70.577 111.989 88.382-6.545-8.899-4.233-17.66-3.441-19.974z" opacity="1" data-original="#d3dcfb"></path>
        <path fill="#9bd8f9" d="M165.281 225.973c100.869 122.863 150.788 4.785 211.317 65.314 6.184 6.184 12.171 11.588 17.983 16.268V63.833H49.352v121.108c22.119-6.97 71.242-13.4 115.929 41.032z" opacity="1" data-original="#9bd8f9"></path>
        <path fill="#73c3f9" d="M49.352 184.941c20.796-6.553 65.461-12.622 107.869 31.91l-16.235-93.698a4.09 4.09 0 0 0-1.09-2.124c-22.066-22.988-8.567-45.561-3.172-52.751.937-1.249 1.157-2.939.432-4.322-.022-.042-.031-.082-.052-.123H49.352z" opacity="1" data-original="#73c3f9" class=""></path>
        <path fill="#4fabf7" d="M332.192 222.034h-224.52c-5.292 0-9.622-4.33-9.622-9.622v-80.987c0-5.292 4.33-9.622 9.622-9.622h224.52c5.292 0 9.622 4.33 9.622 9.622v80.987c0 5.292-4.33 9.622-9.622 9.622z" opacity="1" data-original="#4fabf7"></path>
        <path fill="#1e9ef4" d="M176.716 203.631v-63.426c0-10.122 8.281-18.403 18.403-18.403h-87.447c-5.292 0-9.622 4.33-9.622 9.622v80.988c0 5.292 4.33 9.622 9.622 9.622h87.447c-10.122 0-18.403-8.282-18.403-18.403z" opacity="1" data-original="#1e9ef4"></path>
        <path fill="#2a428c" d="M381.396 28.202H62.538c-7.253 0-13.187 5.934-13.187 13.187v24.534H394.58V41.388c.001-7.252-5.933-13.186-13.184-13.186z" opacity="1" data-original="#2a428c"></path>
        <path fill="#1c2e7a" d="M137.156 63.957c-1.292-2.464-.273-4.525.597-5.664.559-.732.893-1.611.893-2.533V38.093c0-.793-.294-1.544-.759-2.186-1.495-2.062-1.166-4.13-.541-5.604.287-.676.376-1.4.287-2.101H62.538c-7.252 0-13.187 5.934-13.187 13.187v24.534h88.221a3.816 3.816 0 0 0-.416-1.966z" opacity="1" data-original="#1c2e7a" class=""></path>
        <path fill="#ff4155" d="M92.121 47.062c0 5.673-4.599 10.271-10.271 10.271-5.673 0-10.271-4.599-10.271-10.271s4.599-10.271 10.271-10.271 10.271 4.598 10.271 10.271z" opacity="1" data-original="#ff4155"></path>
        <path fill="#ffdd40" d="M120.519 47.062c0 5.673-4.599 10.271-10.271 10.271s-10.271-4.599-10.271-10.271 4.599-10.271 10.271-10.271 10.271 4.598 10.271 10.271z" opacity="1" data-original="#ffdd40"></path>
        <path fill="#38c674" d="M148.917 47.062c0 5.673-4.598 10.271-10.271 10.271s-10.271-4.599-10.271-10.271 4.599-10.271 10.271-10.271 10.271 4.598 10.271 10.271z" opacity="1" data-original="#38c674"></path>
        <path fill="#3c58a0" d="M285.706 54.896h-103.06c-4.327 0-7.834-3.507-7.834-7.834s3.507-7.834 7.834-7.834h103.059a7.833 7.833 0 0 1 7.834 7.834 7.833 7.833 0 0 1-7.833 7.834z" opacity="1" data-original="#3c58a0"></path>
        <path fill="#e9efff" d="M252.484 202.351a7.833 7.833 0 0 1-7.834-7.834v-45.199c0-4.327 3.507-7.834 7.834-7.834s7.834 3.507 7.834 7.834v45.199a7.833 7.833 0 0 1-7.834 7.834zM304.344 202.351h-30.153a7.832 7.832 0 0 1-6.887-4.102 7.83 7.83 0 0 1 .324-8.009l21.56-33.088h-14.069c-4.327 0-7.834-3.507-7.834-7.834s3.507-7.834 7.834-7.834h28.524c6.212 0 9.953 6.909 6.563 12.111l-21.56 33.088h15.698a7.834 7.834 0 0 1 0 15.668zM214.63 202.351h-.037c-11.576-.013-23.245-8.887-23.245-21.931v-31.102a7.834 7.834 0 0 1 15.668 0v31.102c0 1.583.262 3.06 3.474 5.112 1.209.772 2.557 1.149 4.123 1.151h.016c3.7 0 8.126-2.453 8.126-6.296v-31.07a7.834 7.834 0 0 1 15.668 0v31.07c0 13.137-11.869 21.964-23.793 21.964zM175.353 199.874l-14.46-14.459a7.835 7.835 0 0 1 11.079-11.08l14.46 14.459a7.833 7.833 0 0 1 0 11.079 7.834 7.834 0 0 1-11.079.001z" opacity="1" data-original="#e9efff"></path>
        <path fill="#e9efff" d="M158.119 202.351c-16.781 0-30.433-13.652-30.433-30.433 0-16.782 13.652-30.434 30.433-30.434s30.434 13.652 30.434 30.434c-.001 16.781-13.653 30.433-30.434 30.433zm0-45.199c-8.142 0-14.765 6.624-14.765 14.766s6.623 14.765 14.765 14.765 14.766-6.623 14.766-14.765c-.001-8.142-6.624-14.766-14.766-14.766z" opacity="1" data-original="#e9efff"></path>
        <circle cx="408.985" cy="97.516" r="97.516" fill="#ffdd40" transform="rotate(-45 408.998 97.598)" opacity="1" data-original="#ffdd40"></circle>
        <path fill="#ffb332" d="M311.47 97.516c0 53.856 43.659 97.516 97.516 97.516 25.175 0 48.12-9.541 65.421-25.203a3.747 3.747 0 0 0-1.76-1.309c-5.092-1.795-6.031-6.219-5.99-9.392.024-1.877-1.356-3.508-3.207-3.82-7.448-1.255-9.104-6.393-9.343-9.881-.127-1.866-1.652-3.327-3.515-3.489-19.479-1.688-22.556-16.778-23.007-22.756a3.84 3.84 0 0 0-2.496-3.322c-5.206-1.93-17.567-6.564-25.26-9.851-7.803-3.335-6.319-20.367-5.318-27.549.249-1.785-.82-3.446-2.514-4.063-14.943-5.448-11.587-24.122-9.46-31.881.487-1.777-.328-3.679-1.993-4.468-6.117-2.899-5.822-8.895-4.892-12.681.432-1.758-.401-3.55-2.005-4.389-4.156-2.174-4.58-6.746-4.336-9.79a3.725 3.725 0 0 0-.689-2.463c-33.714 15.349-57.152 49.332-57.152 88.791z" opacity="1" data-original="#ffb332"></path>
        <circle cx="408.985" cy="97.516" r="72.937" fill="#e9efff" transform="rotate(-45 408.998 97.598)" opacity="1" data-original="#e9efff"></circle>
        <path fill="#d3dcfb" d="M457.069 152.334c-2.147-2.092-2.819-4.799-2.963-6.907-.127-1.866-1.652-3.327-3.515-3.489-19.479-1.688-22.556-16.778-23.007-22.756a3.84 3.84 0 0 0-2.496-3.322c-5.206-1.93-17.567-6.564-25.26-9.851-7.803-3.335-6.319-20.367-5.318-27.549.249-1.785-.82-3.446-2.514-4.063-14.943-5.448-11.587-24.122-9.46-31.881.487-1.777-.328-3.679-1.993-4.468-2.787-1.321-4.234-3.286-4.905-5.391-23.504 12.11-39.589 36.599-39.589 64.86 0 40.282 32.655 72.937 72.936 72.937 18.427-.001 35.246-6.849 48.084-18.12z" opacity="1" data-original="#d3dcfb"></path>
        <path fill="#ff4155" d="M423.993 97.516h57.929c0-40.282-32.655-72.937-72.937-72.937v57.929c8.041.555 14.453 6.967 15.008 15.008z" opacity="1" data-original="#ff4155"></path>
        <g fill="#d3dcfb">
            <path d="M336.485 272.232 315.2 250.947a7.532 7.532 0 0 0-5.329-2.207H156.03v57.644h153.84a7.536 7.536 0 0 0 5.329-2.207l21.285-21.285a7.538 7.538 0 0 0 .001-10.66zM336.485 356.39 315.2 335.105a7.536 7.536 0 0 0-5.329-2.207H156.03v57.644h153.84a7.536 7.536 0 0 0 5.329-2.207l21.285-21.285a7.538 7.538 0 0 0 .001-10.66zM336.485 440.547 315.2 419.262a7.536 7.536 0 0 0-5.329-2.207H156.03v57.644h153.84a7.536 7.536 0 0 0 5.329-2.207l21.285-21.285a7.538 7.538 0 0 0 .001-10.66z" fill="#d3dcfb" opacity="1" data-original="#d3dcfb"></path>
        </g>
        <path fill="#bec8f7" d="M210.276 277.561c0-15.918 12.904-28.822 28.822-28.822H156.03v57.644h83.068c-15.918 0-28.822-12.904-28.822-28.822zM210.276 361.719c0-15.918 12.904-28.822 28.822-28.822H156.03v57.643h83.068c-15.918 0-28.822-12.903-28.822-28.821zM210.276 445.876c0-15.918 12.904-28.822 28.822-28.822H156.03v57.644h83.068c-15.918 0-28.822-12.904-28.822-28.822z" opacity="1" data-original="#bec8f7"></path>
        <path fill="#38c674" d="M99.976 424.591v35.719a245.672 245.672 0 0 0 20.547 14.389h37.596v-57.644h-50.606a7.536 7.536 0 0 0-7.537 7.536z" opacity="1" data-original="#38c674"></path>
        <path fill="#ffdd40" d="M158.119 332.897h-50.606a7.537 7.537 0 0 0-7.537 7.536v42.571a7.536 7.536 0 0 0 7.537 7.536h50.606z" opacity="1" data-original="#ffdd40"></path>
        <path fill="#ff4155" d="M158.119 248.74h-50.606a7.537 7.537 0 0 0-7.537 7.536v42.571a7.536 7.536 0 0 0 7.537 7.536h50.606z" opacity="1" data-original="#ff4155"></path>
        <path fill="#ffb332" d="M408.986 179.611c-45.267 0-82.095-36.827-82.095-82.095s36.828-82.095 82.095-82.095 82.094 36.827 82.094 82.095-36.827 82.095-82.094 82.095zm0-145.874c-35.167 0-63.779 28.611-63.779 63.778s28.611 63.778 63.779 63.778 63.778-28.611 63.778-63.778-28.611-63.778-63.778-63.778z" opacity="1" data-original="#ffb332"></path>
        <path fill="#ff9100" d="M465.799 156.692a3.85 3.85 0 0 0-2.35-1.385c-7.448-1.255-9.104-6.393-9.343-9.881a3.65 3.65 0 0 0-.841-2.073c-11.481 11.094-27.091 17.941-44.28 17.941-35.167 0-63.778-28.611-63.778-63.778 0-25.606 15.176-47.722 36.999-57.863a3.676 3.676 0 0 0-1.663-1.606c-6.117-2.899-5.822-8.895-4.892-12.681a3.847 3.847 0 0 0-.328-2.696c-28.522 12.879-48.433 41.572-48.433 74.847 0 45.268 36.828 82.095 82.095 82.095 22.035-.001 42.053-8.743 56.814-22.92z" opacity="1" data-original="#ff9100" class=""></path>
        <path fill="#3c58a0" d="M408.986 123.993c-14.6 0-26.477-11.877-26.477-26.477s11.878-26.477 26.477-26.477c14.6 0 26.477 11.877 26.477 26.477s-11.878 26.477-26.477 26.477zm0-34.637c-4.5 0-8.161 3.661-8.161 8.16s3.661 8.16 8.161 8.16 8.16-3.661 8.16-8.16-3.661-8.16-8.16-8.16z" opacity="1" data-original="#3c58a0"></path>
        <path fill="#3c58a0" d="M408.986 89.356a9.158 9.158 0 0 1-9.158-9.158V53.053c0-5.058 4.1-9.158 9.158-9.158s9.158 4.1 9.158 9.158v27.145c0 5.058-4.1 9.158-9.158 9.158z" opacity="1" data-original="#3c58a0"></path>
    </g>
</svg>